<?xml version="1.0" encoding="UTF-8" standalone="no"?><!DOCTYPE svg PUBLIC "-//W3C//DTD SVG 1.1//EN" "http://www.w3.org/Graphics/SVG/1.1/DTD/svg11.dtd"><svg width="100%" height="100%" viewBox="0 0 1792 538" version="1.1" xmlns="http://www.w3.org/2000/svg" xmlns:xlink="http://www.w3.org/1999/xlink" xml:space="preserve" xmlns:serif="http://www.serif.com/" style="fill-rule:evenodd;clip-rule:evenodd;"><g opacity="0.25"><path d="M1789.58,166.667c0,10.505 -7.058,21.198 -21.587,31.912c-14.471,10.675 -35.946,21.059 -63.8,31c-55.688,19.873 -136.384,37.806 -236.242,52.879c-199.683,30.141 -475.617,48.792 -780.454,48.792c-304.837,0 -580.769,-18.651 -780.453,-48.792c-99.858,-15.073 -180.555,-33.006 -236.242,-52.879c-27.857,-9.941 -49.331,-20.325 -63.802,-31c-14.526,-10.714 -21.586,-21.407 -21.586,-31.912c-0,-10.506 7.06,-21.198 21.586,-31.913c14.471,-10.674 35.945,-21.058 63.802,-30.999c55.687,-19.874 136.384,-37.807 236.242,-52.88c199.684,-30.14 475.616,-48.792 780.453,-48.792c304.838,0 580.771,18.652 780.454,48.792c99.858,15.073 180.554,33.006 236.242,52.88c27.854,9.941 49.329,20.325 63.8,30.999c14.529,10.715 21.587,21.407 21.587,31.913Z" style="fill:none;fill-rule:nonzero;stroke:#151515;stroke-width:4.17px;"/><path d="M1789.58,216.667c0,10.505 -7.058,21.198 -21.587,31.912c-14.471,10.675 -35.946,21.058 -63.8,31c-55.688,19.873 -136.384,37.806 -236.242,52.879c-199.683,30.141 -475.617,48.792 -780.454,48.792c-304.837,0 -580.769,-18.651 -780.453,-48.792c-99.858,-15.073 -180.555,-33.006 -236.242,-52.879c-27.857,-9.941 -49.331,-20.325 -63.802,-31c-14.526,-10.714 -21.586,-21.407 -21.586,-31.912c-0,-10.506 7.06,-21.198 21.586,-31.913c14.471,-10.674 35.945,-21.058 63.802,-30.999c55.687,-19.874 136.384,-37.807 236.242,-52.88c199.684,-30.14 475.616,-48.792 780.453,-48.792c304.838,0 580.771,18.652 780.454,48.792c99.858,15.073 180.554,33.006 236.242,52.88c27.854,9.941 49.329,20.325 63.8,30.999c14.529,10.715 21.587,21.407 21.587,31.913Z" style="fill:none;fill-rule:nonzero;stroke:#151515;stroke-width:4.17px;"/><path d="M1789.58,270.833c0,10.506 -7.058,21.198 -21.587,31.913c-14.471,10.674 -35.946,21.058 -63.8,30.999c-55.688,19.874 -136.384,37.807 -236.242,52.88c-199.683,30.142 -475.617,48.792 -780.454,48.792c-304.837,-0 -580.769,-18.65 -780.453,-48.792c-99.858,-15.073 -180.555,-33.006 -236.242,-52.88c-27.857,-9.941 -49.331,-20.325 -63.802,-30.999c-14.526,-10.715 -21.586,-21.407 -21.586,-31.913c-0,-10.505 7.06,-21.198 21.586,-31.912c14.471,-10.675 35.945,-21.058 63.802,-31c55.687,-19.873 136.384,-37.806 236.242,-52.879c199.684,-30.141 475.616,-48.792 780.453,-48.792c304.838,0 580.771,18.651 780.454,48.792c99.858,15.073 180.554,33.006 236.242,52.879c27.854,9.942 49.329,20.325 63.8,31c14.529,10.714 21.587,21.407 21.587,31.912Z" style="fill:none;fill-rule:nonzero;stroke:#151515;stroke-width:4.17px;"/><path d="M1789.58,320.833c0,10.506 -7.058,21.198 -21.587,31.913c-14.471,10.674 -35.946,21.058 -63.8,30.999c-55.688,19.874 -136.384,37.805 -236.242,52.88c-199.683,30.142 -475.617,48.792 -780.454,48.792c-304.837,-0 -580.769,-18.65 -780.453,-48.792c-99.858,-15.075 -180.555,-33.006 -236.242,-52.88c-27.857,-9.941 -49.331,-20.325 -63.802,-30.999c-14.526,-10.715 -21.586,-21.407 -21.586,-31.913c-0,-10.505 7.06,-21.198 21.586,-31.912c14.471,-10.675 35.945,-21.058 63.802,-31c55.687,-19.873 136.384,-37.806 236.242,-52.879c199.684,-30.141 475.616,-48.792 780.453,-48.792c304.838,0 580.771,18.651 780.454,48.792c99.858,15.073 180.554,33.006 236.242,52.879c27.854,9.942 49.329,20.325 63.8,31c14.529,10.714 21.587,21.407 21.587,31.912Z" style="fill:none;fill-rule:nonzero;stroke:#151515;stroke-width:4.17px;"/><path d="M1789.58,370.833c0,10.506 -7.058,21.198 -21.587,31.913c-14.471,10.674 -35.946,21.058 -63.8,31c-55.688,19.871 -136.384,37.804 -236.242,52.879c-199.683,30.142 -475.617,48.792 -780.454,48.792c-304.837,-0 -580.769,-18.65 -780.453,-48.792c-99.858,-15.075 -180.555,-33.008 -236.242,-52.879c-27.857,-9.942 -49.331,-20.326 -63.802,-31c-14.526,-10.715 -21.586,-21.407 -21.586,-31.913c-0,-10.505 7.06,-21.198 21.586,-31.912c14.471,-10.675 35.945,-21.058 63.802,-31c55.687,-19.873 136.384,-37.806 236.242,-52.879c199.684,-30.141 475.616,-48.792 780.453,-48.792c304.838,0 580.771,18.651 780.454,48.792c99.858,15.073 180.554,33.006 236.242,52.879c27.854,9.942 49.329,20.325 63.8,31c14.529,10.714 21.587,21.407 21.587,31.912Z" style="fill:none;fill-rule:nonzero;stroke:#151515;stroke-width:4.17px;"/></g></svg>